<svg width="106" height="59" viewBox="0 0 106 59" fill="none" xmlns="http://www.w3.org/2000/svg">
<rect x="1" y="1" width="104" height="57" rx="6" fill="white" stroke="black" stroke-width="2"/>
<path d="M48.5328 31.606H13V45.9744H48.5328V31.606Z" fill="#84B740"/>
<path d="M48.5328 12H13V26.3812H48.5328V12Z" fill="#259BD6"/>
<path d="M84.0656 43.0546L83.9073 43.093C83.3587 43.2211 83.1583 43.2723 82.7573 43.2723C81.8289 43.2723 80.7317 42.696 80.7317 39.9812C80.7317 38.5853 80.9216 36.7284 82.6518 36.7284H82.6624C82.9578 36.754 83.2954 36.7925 83.9284 37.023L84.0656 37.0742V43.0546ZM84.3504 29.5186L84.0656 29.5827V34.6026L83.8124 34.513L83.7385 34.4874C83.4537 34.3849 82.7995 34.1544 82.1665 34.1544C78.7061 34.1544 77.9781 37.3303 77.9781 39.994C77.9781 43.6437 79.6662 45.7439 82.6096 45.7439C83.8546 45.7439 84.7724 45.5902 85.7008 45.2188C86.5554 44.8859 86.8613 44.412 86.8613 43.4004V28.9936C86.0384 29.1729 85.1839 29.3522 84.3504 29.5186Z" fill="#27292D"/>
<path d="M94.3519 43.1443L94.2042 43.1955L93.6767 43.362C93.1809 43.5156 92.7378 43.6053 92.4002 43.6053C91.5878 43.6053 91.1025 43.1186 91.1025 42.2863C91.1025 41.7484 91.3029 40.8392 92.6323 40.8392H94.3519V43.1443ZM93.1387 34.0904C92.0731 34.0904 90.9759 34.3209 89.6149 34.8331L88.7287 35.1533L89.0241 37.5864L89.8892 37.2407C90.7965 36.8821 91.9254 36.6516 92.7694 36.6516C93.1492 36.6516 94.3097 36.6516 94.3097 38.1755V38.8414H92.6956C89.7521 38.8414 88.3911 39.9812 88.3911 42.4271C88.3911 44.5145 89.6466 45.7695 91.7566 45.7695C92.4107 45.7695 93.318 45.6158 94.0987 45.3853L94.1409 45.3725L94.1831 45.3853L94.4469 45.4365C95.2698 45.6158 96.1243 45.7951 96.9578 45.9872V37.9962C96.9578 35.4094 95.6707 34.0904 93.1387 34.0904Z" fill="#27292D"/>
<path d="M73.8531 43.1443L73.7054 43.1955L73.1779 43.362C72.682 43.5156 72.2494 43.6053 71.9013 43.6053C71.0889 43.6053 70.6036 43.1186 70.6036 42.2862C70.6036 41.7484 70.8041 40.8392 72.1228 40.8392H73.8425L73.8531 43.1443ZM72.6503 34.0904C71.5742 34.0904 70.4876 34.3209 69.1266 34.8331L68.2404 35.1533L68.5358 37.5864L69.4009 37.2407C70.3082 36.8821 71.4371 36.6516 72.2811 36.6516C72.6609 36.6516 73.8214 36.6516 73.8214 38.1755V38.8414H72.2072C69.2638 38.8414 67.8922 39.9812 67.8922 42.4271C67.8922 44.5145 69.1477 45.7695 71.2683 45.7695C71.9224 45.7695 72.8297 45.6158 73.6104 45.3853L73.6526 45.3725L73.6948 45.3853L73.948 45.4365C74.7815 45.6158 75.6255 45.7951 76.4589 46V38.009C76.4695 35.3966 75.1824 34.0904 72.6503 34.0904Z" fill="#27292D"/>
<path d="M62.7438 34.116C61.4039 34.116 60.2962 34.6539 59.8847 34.8844L59.7792 34.9484L59.6842 34.8587C59.1145 34.3593 58.2811 34.1032 57.1206 34.1032C56.0972 34.1032 55.1372 34.2825 54.0927 34.6539C53.1959 34.9868 52.8478 35.5119 52.8478 36.4979V45.6286H55.6541V37.1894L55.7913 37.1382C56.361 36.9077 56.6986 36.8693 57.0256 36.8693C57.838 36.8693 58.2494 37.3943 58.2494 38.4188V45.6414H61.0136V38.278C61.0136 37.8426 60.9397 37.5864 60.9292 37.5352L60.8342 37.3175L61.0241 37.2151C61.4461 36.9845 61.9103 36.8693 62.3956 36.8693C62.9548 36.8693 63.6194 37.1382 63.6194 38.4188V45.6414H66.373V38.0859C66.373 35.4094 65.1914 34.116 62.7438 34.116Z" fill="#27292D"/>
<path d="M92.2841 21.374C91.8726 21.374 91.1869 21.3228 90.6488 21.1947L90.4906 21.1563V16.226C90.4906 15.8162 90.4273 15.5601 90.4167 15.5217L90.3323 15.3168L90.5117 15.2271C90.5539 15.2015 90.5961 15.1887 90.6488 15.1631L90.6805 15.1375C90.7438 15.1119 90.8071 15.0863 90.8704 15.0606C90.902 15.0478 90.9231 15.035 90.9442 15.035C91.5667 14.8301 92.1364 14.8557 92.3896 14.8301H92.4002C94.1198 14.8301 94.3203 16.687 94.3203 18.0829C94.3097 20.7977 93.202 21.374 92.2841 21.374ZM92.2736 12C92.2525 12 92.2208 12 92.1997 12C90.5855 12 88.9292 12.5379 88.3384 13.5879C88.0219 14.1002 87.8425 14.7405 87.832 15.496V20.58C87.832 21.0154 87.7581 21.1819 87.7476 21.2203L87.6526 21.438H82.5569V17.9036H82.5464C82.483 14.177 80.6684 12.1281 78.0415 12.1281H77.7355H75.4778C75.3723 13.0373 75.2879 13.6776 75.1824 14.5868H77.7355C79.0754 14.5868 79.7822 15.9699 79.7822 18.0957V21.6557L79.6029 21.5405C79.5712 21.5277 79.3497 21.438 79.0015 21.438H74.5916C74.5072 22.1168 74.4017 23.0004 74.2856 23.884H87.8425C88.3067 23.7687 88.8448 23.6663 89.309 23.5766C89.9947 23.9864 91.2713 24.2041 92.147 24.2041C95.0904 24.2041 97 21.8094 97 18.1213C96.9895 14.4716 95.1432 12.0768 92.2736 12Z" fill="#27292D"/>
<path d="M68.5041 25.3823H68.6307C71.5742 25.3823 72.9457 24.2041 72.9457 21.2972C72.9457 19.2098 71.6903 17.545 69.5803 17.545H66.8689C66.0565 17.545 65.5712 16.9815 65.5712 16.0339C65.5712 15.3936 65.7717 14.5996 67.101 14.5996H73.0301C73.1567 13.6648 73.22 13.0757 73.3361 12.1409H67.1748C64.3052 12.1409 62.8598 13.6008 62.8598 16.0339C62.8598 18.4414 64.1153 19.6964 66.2253 19.6964H68.9367C69.7491 19.6964 70.2344 20.4776 70.2344 21.2972C70.2344 21.835 70.0339 22.9492 68.7151 22.9492H68.2615L59.5787 22.9235H57.9962C56.6564 22.9235 55.7174 22.0015 55.7174 19.8629V18.3902C55.7174 16.162 56.4454 14.7789 57.9962 14.7789H60.5705C60.6865 13.8313 60.7604 13.2294 60.8659 12.333H57.6586H57.3527C54.7257 12.333 52.9111 14.4716 52.8478 18.1981V18.339V19.8629C52.9111 23.5895 54.7257 25.3695 57.3527 25.3695H57.6586H59.9164L64.6217 25.3823H67.428H68.5041Z" fill="#27292D"/>
</svg>
