<svg width="106" height="59" viewBox="0 0 106 59" fill="none" xmlns="http://www.w3.org/2000/svg">
<rect x="1" y="1" width="104" height="57" rx="6" fill="white" stroke="black" stroke-width="2"/>
<path d="M29.4121 50.9058V48.0521C29.4121 46.9604 28.5234 46.2456 26.9978 46.2456C26.235 46.2456 25.4055 46.434 24.8353 47.0546C24.3909 46.5338 23.754 46.2456 22.7986 46.2456C22.1617 46.2456 21.5248 46.3897 21.0212 46.9106V46.3398H19.6881V50.9058H21.0212V48.3845C21.0212 47.5755 21.5915 47.1932 22.4802 47.1932C23.3689 47.1932 23.8132 47.6198 23.8132 48.3845V50.9058H25.1463V48.3845C25.1463 47.5755 25.7832 47.1932 26.6053 47.1932C27.494 47.1932 27.9383 47.6198 27.9383 48.3845V50.9058H29.4121ZM49.1859 46.3398H47.0234V44.96H45.6903V46.3398H44.4832V47.243H45.6903V49.3376C45.6903 50.3849 46.2606 51 47.7862 51C48.3565 51 48.9934 50.8559 49.4377 50.6675L49.0526 49.8086C48.6675 49.997 48.2232 50.0469 47.9047 50.0469C47.2678 50.0469 47.016 49.7588 47.016 49.2878V47.243H49.1785V46.3398H49.1859ZM60.5022 46.2401C59.7394 46.2401 59.2284 46.5282 58.9099 46.905V46.3343H57.5769V50.9003H58.9099V48.3291C58.9099 47.57 59.3543 47.1378 60.1837 47.1378C60.4355 47.1378 60.754 47.1876 61.0132 47.232L61.3983 46.2789C61.1317 46.2401 60.754 46.2401 60.5022 46.2401ZM43.4019 46.7166C42.765 46.3841 41.8763 46.2401 40.9209 46.2401C39.3953 46.2401 38.3807 46.8108 38.3807 47.714C38.3807 48.4732 39.1435 48.9054 40.4766 49.0439L41.1135 49.0938C41.8096 49.188 42.1947 49.3321 42.1947 49.5704C42.1947 49.9028 41.6837 50.1411 40.795 50.1411C39.9063 50.1411 39.2028 49.9028 38.7584 49.6646L38.1215 50.4237C38.8176 50.8061 39.773 50.9945 40.7284 50.9945C42.5058 50.9945 43.5278 50.3738 43.5278 49.5205C43.5278 48.7115 42.6983 48.2848 41.4319 48.1407L40.795 48.0908C40.2248 48.041 39.7804 47.9468 39.7804 47.6642C39.7804 47.3317 40.2248 47.1433 40.9283 47.1433C41.6911 47.1433 42.454 47.3816 42.8391 47.5256L43.4019 46.7166ZM78.8689 46.2401C78.1061 46.2401 77.5951 46.5282 77.2766 46.905V46.3343H75.9435V50.9003H77.2766V48.3291C77.2766 47.57 77.721 47.1378 78.5504 47.1378C78.8022 47.1378 79.1207 47.1876 79.3799 47.232L79.765 46.2899C79.5058 46.2401 79.1281 46.2401 78.8689 46.2401ZM61.8353 48.6228C61.8353 50.0026 63.1091 51 65.0791 51C65.9678 51 66.6047 50.8559 67.2416 50.4791L66.6047 49.6701C66.0937 49.9582 65.5901 50.0968 65.0124 50.0968C63.9311 50.0968 63.1683 49.526 63.1683 48.6228C63.1683 47.7639 63.9311 47.1932 65.0124 47.1488C65.5827 47.1488 66.0937 47.2929 66.6047 47.5755L67.2416 46.7665C66.6047 46.3841 65.9678 46.2456 65.0791 46.2456C63.1091 46.2401 61.8353 47.243 61.8353 48.6228ZM74.1661 48.6228V46.3398H72.8331V46.9106C72.3887 46.4839 71.7518 46.2456 70.9223 46.2456C69.2041 46.2456 67.8711 47.243 67.8711 48.6228C67.8711 50.0026 69.2041 51 70.9223 51C71.811 51 72.4479 50.7617 72.8331 50.335V50.9058H74.1661V48.6228ZM69.2708 48.6228C69.2708 47.8138 69.967 47.1488 71.1149 47.1488C72.1961 47.1488 72.959 47.7695 72.959 48.6228C72.959 49.4318 72.1961 50.0968 71.1149 50.0968C69.9744 50.0469 69.2708 49.4263 69.2708 48.6228ZM53.3184 46.2401C51.541 46.2401 50.2672 47.1932 50.2672 48.6173C50.2672 50.0469 51.541 50.9945 53.3851 50.9945C54.2738 50.9945 55.1625 50.8061 55.8661 50.3738L55.2292 49.659C54.7182 49.9472 54.0813 50.1356 53.4518 50.1356C52.6223 50.1356 51.8002 49.8474 51.6077 49.0439H56.1179C56.1179 48.8999 56.1179 48.8057 56.1179 48.6616C56.1771 47.1932 55.0292 46.2401 53.3184 46.2401ZM53.3184 47.099C54.1479 47.099 54.7182 47.4813 54.8441 48.1906H51.6669C51.7928 47.5755 52.3631 47.099 53.3184 47.099ZM86.4377 48.6228V44.5334H85.1047V46.9106C84.6603 46.4839 84.0234 46.2456 83.1939 46.2456C81.4758 46.2456 80.1427 47.243 80.1427 48.6228C80.1427 50.0026 81.4758 51 83.1939 51C84.0827 51 84.7196 50.7617 85.1047 50.335V50.9058H86.4377V48.6228ZM81.5424 48.6228C81.5424 47.8138 82.2386 47.1488 83.3865 47.1488C84.4678 47.1488 85.2306 47.7695 85.2306 48.6228C85.2306 49.4318 84.4678 50.0968 83.3865 50.0968C82.2386 50.0469 81.5424 49.4263 81.5424 48.6228ZM36.9143 48.6228V46.3398H35.5813V46.9106C35.1369 46.4839 34.5 46.2456 33.6705 46.2456C31.9524 46.2456 30.6193 47.243 30.6193 48.6228C30.6193 50.0026 31.9524 51 33.6705 51C34.5592 51 35.1961 50.7617 35.5813 50.335V50.9058H36.9143V48.6228ZM31.9598 48.6228C31.9598 47.8138 32.6559 47.1488 33.8038 47.1488C34.8851 47.1488 35.6479 47.7695 35.6479 48.6228C35.6479 49.4318 34.8851 50.0968 33.8038 50.0968C32.6559 50.0469 31.9598 49.4263 31.9598 48.6228Z" fill="black"/>
<path d="M62.9832 11.6628H42.9576V38.5821H62.9832V11.6628Z" fill="#FF5A00"/>
<path d="M44.2906 25.1224C44.2906 19.6532 47.727 14.7991 53 11.6628C49.1193 9.37977 44.224 8 38.8843 8C26.235 8 16 15.658 16 25.1224C16 34.5869 26.235 42.2448 38.8843 42.2448C44.224 42.2448 49.1193 40.8651 53 38.5821C47.7196 35.4901 44.2906 30.5916 44.2906 25.1224Z" fill="#EB001B"/>
<path d="M90 25.1224C90 34.5869 79.765 42.2448 67.1157 42.2448C61.776 42.2448 56.8807 40.8651 53 38.5821C58.3397 35.4402 61.7094 30.5916 61.7094 25.1224C61.7094 19.6532 58.273 14.7991 53 11.6628C56.8733 9.37977 61.7686 8 67.1083 8C79.765 8 90 15.7079 90 25.1224Z" fill="#F79E1B"/>
</svg>
