<svg width="108" height="106" viewBox="0 0 108 106" fill="none" xmlns="http://www.w3.org/2000/svg">
<rect x="1" y="25" width="104" height="57" rx="6" fill="white" stroke="black" stroke-width="2"/>
<path d="M68.1037 59.5345V45.0651H70.6037V46.2253C71.3646 45.2918 72.4925 44.785 73.8918 44.785C76.7724 44.785 78.8377 47.0387 78.8377 50.2659C78.8377 53.4932 76.7589 55.7871 73.8918 55.7871C72.4788 55.7871 71.3646 55.2535 70.6037 54.32V59.5343H68.1037V59.5345ZM70.6039 48.9327V51.5998C71.1338 52.6801 72.0849 53.4669 73.4573 53.4669C75.1151 53.4669 76.2292 52.2532 76.2292 50.2529C76.2292 48.2793 75.1151 47.0789 73.4573 47.0789C72.0849 47.0922 71.1338 47.8257 70.6039 48.9327Z" fill="#02AA7C"/>
<path d="M80.4547 52.5066C80.4547 50.7463 81.5689 49.5194 83.4167 49.2927L87.6696 48.7592V48.2391C87.6696 47.6124 87.3435 47.2789 86.7457 47.2789H81.4058V45.0519H86.8409C89.0013 45.0519 90.1834 46.092 90.1834 47.9325V55.4672H87.6561V54.2004C86.9225 55.214 85.7132 55.7873 84.1506 55.7873C81.9494 55.7873 80.4547 54.467 80.4547 52.5066ZM84.7619 53.7867C86.0391 53.7867 87.2212 53.0799 87.6559 52.0398V50.7328L84.4085 51.173C83.5118 51.293 83.009 51.7597 83.009 52.5199C83.0092 53.3333 83.6477 53.7867 84.7619 53.7867Z" fill="#02AA7C"/>
<path d="M92.004 57.3075H93.8248C94.5177 57.3075 94.8303 57.0274 95.0613 56.3872L95.3874 55.467L91.5285 45.0517H94.1374L96.5423 52.3065H96.5967L98.893 45.0517H101.461L97.2352 57.0139C96.6646 58.6542 95.9036 59.5343 94.0423 59.5343H92.0042L92.004 57.3075Z" fill="#02AA7C"/>
<path d="M15.7106 66.6959C18.6184 66.6959 21.0098 65.8024 22.5859 64.3089C23.768 63.1619 24.4609 61.615 24.4609 59.8281C24.4609 58.2145 23.8494 56.7609 22.7218 55.6539C21.5941 54.5469 19.977 53.7335 17.939 53.3468L14.5965 52.7066C13.2106 52.4532 12.4225 51.7731 12.4225 50.8264C12.4225 49.5861 13.6453 48.7327 15.602 48.7327C16.8248 48.7327 17.871 49.1194 18.564 49.7995C18.9987 50.2664 19.2976 50.8663 19.3927 51.5464L24.2163 50.4796C24.0804 49.1194 23.4282 47.919 22.4364 46.9323C20.8467 45.3986 18.4144 44.4252 15.5476 44.4252C12.898 44.4252 10.6834 45.2788 9.14794 46.639C7.8435 47.8391 7.10986 49.4527 7.10986 51.2531C7.10986 52.8267 7.62623 54.1602 8.67248 55.1738C9.71873 56.2007 11.2404 56.9609 13.2378 57.4408L16.5396 58.2143C18.1974 58.601 18.931 59.2012 18.931 60.268C18.931 61.5883 17.7082 62.3617 15.7108 62.3617C14.2706 62.3617 13.102 61.8949 12.3683 61.1214C11.8519 60.6146 11.5395 59.9213 11.4986 59.161L6.53906 60.2281C6.67491 61.6817 7.36784 62.9619 8.41409 63.9888C10.0581 65.6823 12.7214 66.6959 15.7106 66.6959ZM52.4239 66.6959C55.644 66.6959 58.1171 65.549 59.8153 63.9221C61.1605 62.6419 61.9893 61.1483 62.4242 59.6147L57.3425 57.9476C57.125 58.7211 56.6903 59.5345 55.9974 60.1614C55.1686 60.9349 54.0407 61.4817 52.4239 61.4817C50.9429 61.4817 49.557 60.9216 48.5515 59.948C47.5459 58.9211 46.9346 57.4276 46.9346 55.5471C46.9346 53.6267 47.5462 52.1731 48.5515 51.1462C49.5433 50.1593 50.9022 49.6527 52.3832 49.6527C53.9458 49.6527 55.0327 50.1595 55.8208 50.933C56.473 51.5731 56.8671 52.3866 57.1253 53.2L62.3021 51.493C61.908 49.9995 61.0793 48.5058 59.87 47.2657C58.1308 45.5986 55.6035 44.4117 52.261 44.4117C49.1767 44.4117 46.3913 45.5587 44.3939 47.5323C42.3965 49.5326 41.1737 52.3199 41.1737 55.5606C41.1737 58.8012 42.4375 61.575 44.4755 63.5888C46.459 65.549 49.2851 66.6959 52.4239 66.6959ZM34.8553 66.6959C37.1109 66.6959 38.7277 66.0159 39.4206 65.4157V60.8016C38.8908 61.1883 37.858 61.6552 36.4994 61.6552C35.5347 61.6552 34.8416 61.4417 34.3254 60.9751C33.8907 60.5484 33.6732 59.8149 33.6732 58.8414V39.3045H27.9258V45.0655H39.4071V50.5332H27.9258V60.2283C27.9258 62.1887 28.5373 63.7756 29.6243 64.8826C30.8471 66.0558 32.6405 66.6959 34.8553 66.6959Z" fill="#502C84"/>
</svg>
