<svg width="106" height="59" viewBox="0 0 106 59" fill="none" xmlns="http://www.w3.org/2000/svg">
<rect x="1" y="1" width="104" height="57" rx="6" fill="white" stroke="black" stroke-width="2"/>
<g clip-path="url(#clip0_1_132)">
<path d="M47.1333 49.4085H40.0046L44.4634 9.71942H51.5916L47.1333 49.4085Z" fill="#00579F"/>
<path d="M72.9751 10.6897C71.569 9.88665 69.3389 8.99998 66.5813 8.99998C59.5416 8.99998 54.5842 14.4042 54.5538 22.1305C54.4954 27.831 58.1031 30.9972 60.8015 32.898C63.5594 34.8402 64.4969 36.1079 64.4969 37.8392C64.4689 40.498 62.2684 41.7237 60.216 41.7237C57.3699 41.7237 55.8449 41.0918 53.5274 39.6125L52.5888 38.9784L51.5912 47.8877C53.2631 48.9843 56.3435 49.9573 59.5416 50C67.0214 50 71.891 44.6794 71.9487 36.4458C71.9772 31.9277 70.0721 28.4657 65.965 25.6368C63.4717 23.8208 61.9448 22.5963 61.9448 20.7382C61.974 19.0491 63.2363 17.319 66.0508 17.319C68.3682 17.2342 70.071 18.0361 71.3609 18.8386L72.0056 19.2601L72.9751 10.6897V10.6897Z" fill="#00579F"/>
<path d="M82.4497 35.3481C83.0367 33.068 85.2957 24.2434 85.2957 24.2434C85.2661 24.3281 85.8816 21.9212 86.2336 20.4436L86.7318 23.8635C86.7318 23.8635 88.0818 33.3637 88.3749 35.3481C87.2608 35.3481 83.8577 35.3481 82.4497 35.3481ZM91.2491 9.71942H85.7351C84.0347 9.71942 82.7428 10.4366 82.0092 13.0124L71.4205 49.408H78.9004C78.9004 49.408 80.1318 44.5094 80.3965 43.4544C81.2171 43.4544 88.4934 43.4544 89.5491 43.4544C89.7537 44.8478 90.3996 49.408 90.3996 49.408H97.0001L91.2491 9.71942V9.71942Z" fill="#00579F"/>
<path d="M34.0506 9.71942L27.0693 36.7836L26.3064 31.2947C25.0157 24.9611 20.9678 18.0799 16.4506 14.6584L22.8452 49.3664H30.3835L41.5885 9.71942H34.0506V9.71942Z" fill="#00579F"/>
<path d="M20.5866 9.71942H9.11733L9 10.5214C17.9467 13.8149 23.872 21.754 26.3064 31.2963L23.8131 13.0557C23.4026 10.5208 22.1412 9.80304 20.5866 9.71942Z" fill="#FAA61A"/>
</g>
<defs>
<clipPath id="clip0_1_132">
<rect width="88" height="41" fill="white" transform="translate(9 9)"/>
</clipPath>
</defs>
</svg>
